<svg viewBox="0 0 64 64" xmlns="http://www.w3.org/2000/svg"><path d="m32.9 19.2c-.7 0-1.3-.6-1.3-1.3v-4.6c0-.7.6-1.3 1.3-1.3s1.3.6 1.3 1.3v4.6c0 .7-.6 1.3-1.3 1.3zm0 34.6c-.7 0-1.3-.6-1.3-1.3v-4.6c0-.7.6-1.3 1.3-1.3s1.3.6 1.3 1.3v4.6c0 .7-.6 1.3-1.3 1.3zm-15-19.6h-4.6c-.7 0-1.3-.6-1.3-1.3s.6-1.3 1.3-1.3h4.6c.7 0 1.3.6 1.3 1.3s-.6 1.3-1.3 1.3zm34.6 0h-4.6c-.7 0-1.3-.6-1.3-1.3s.6-1.3 1.3-1.3h4.6c.7 0 1.3.6 1.3 1.3s-.6 1.3-1.3 1.3zm-8.5-10.7c-.3 0-.7-.1-.9-.4-.5-.5-.5-1.4 0-1.9l3.2-3.2c.5-.5 1.4-.5 1.9 0s.5 1.4 0 1.9l-3.2 3.2c-.3.3-.7.4-1 .4zm-24.9 24.9c-.3 0-.7-.1-.9-.4-.5-.5-.5-1.4 0-1.9l3.2-3.2c.5-.5 1.4-.5 1.9 0s.5 1.4 0 1.9l-3.3 3.2c-.2.3-.6.4-.9.4zm28.1-.2c-.3 0-.7-.1-.9-.4l-3.2-3.2c-.5-.5-.5-1.4 0-1.9s1.4-.5 1.9 0l3.2 3.2c.5.5.5 1.4 0 1.9-.3.3-.6.4-1 .4zm-24.9-24.5c-.3 0-.7-.1-.9-.4l-3.2-3.2c-.5-.5-.5-1.4 0-1.9s1.4-.5 1.9 0l3.2 3.2c.5.5.5 1.4 0 1.9-.3.3-.6.4-1 .4zm10.6.8c4.6 0 8.4 3.8 8.4 8.4s-3.8 8.4-8.4 8.4-8.4-3.8-8.4-8.4 3.8-8.4 8.4-8.4m0-2.7c-6.1 0-11.1 5-11.1 11.1s5 11.1 11.1 11.1 11.1-5 11.1-11.1-5-11.1-11.1-11.1z" fill="#f4a71d"/></svg>