<svg viewBox="-100 -100 700 700" xmlns="http://www.w3.org/2000/svg"><g fill="#fff"><path d="m287.6 94.9c-31.7 0-57.5 25.8-57.5 57.5h34.5c0-12.6 10.3-23 23-23s23 10.3 23 23-10.3 23-23 23h-241.6v34.5h241.6c31.7 0 57.5-25.8 57.5-57.5s-25.8-57.5-57.5-57.5z"/><path d="m431.4 106.4c-34.8 0-63.2 28.3-63.2 63.2 0 25.3 20.6 46 46 46 25.3 0 46-20.6 46-46h-34.5c0 6.3-5.1 11.5-11.5 11.5-6.3 0-11.5-5.1-11.5-11.5 0-15.8 12.9-28.7 28.7-28.7 25.3 0 46 20.6 46 46 0 25.3-20.6 46-46 46h-431.4v34.5h431.4c44.4 0 80.5-36.1 80.5-80.5s-36.1-80.5-80.5-80.5z"/><path d="m345.1 290.5h-299.1v34.5h299.1c15.8 0 28.7 12.9 28.7 28.7s-12.9 28.7-28.7 28.7-28.7-12.9-28.7-28.7h-34.5c0 34.8 28.3 63.2 63.2 63.2s63.2-28.3 63.2-63.2-28.3-63.2-63.2-63.2z"/></g></svg>
